<svg width="182" height="72" viewBox="0 0 182 72" fill="none" xmlns="http://www.w3.org/2000/svg">
<path d="M56.32 58.76C53.248 58.76 50.8587 58.2907 49.152 57.352C47.4453 56.4133 46.2293 54.9627 45.504 53C44.8213 50.9947 44.48 48.328 44.48 45V20.36L28.48 55.88H27.2L10.56 19.72V55.88H8V13.64H14.08L29.44 46.92L44.48 13.64H50.24V45C50.24 48.968 50.7307 52.04 51.712 54.216C52.736 56.392 54.272 57.48 56.32 57.48V58.76Z" fill="black"/>
<path d="M76.455 21.32C76.455 19.144 76.1563 17.544 75.559 16.52C74.9617 15.4533 73.767 14.92 71.975 14.92H70.695V13.64H97.959C101.586 13.64 103.399 15.3467 103.399 18.76V23.56H102.119C102.119 18.6533 99.4523 16.2 94.119 16.2H82.215V32.84H99.495V35.4H82.215V53.32H93.415C96.359 53.32 98.663 52.7867 100.327 51.72C101.991 50.6533 103.314 48.84 104.295 46.28L105.575 46.6L103.335 52.68C102.567 54.8133 100.967 55.88 98.535 55.88H76.455V21.32Z" fill="black"/>
<path d="M125.213 21.128C124.36 18.6533 123.442 16.968 122.461 16.072C121.522 15.1333 120.093 14.5787 118.173 14.408V13.128C118.386 13.128 118.706 13.1067 119.133 13.064C119.517 13.0213 119.922 13 120.349 13C122.696 13 124.808 13.5333 126.685 14.6C128.605 15.6667 130.141 17.8427 131.293 21.128L139.869 45.832L146.717 25.544L145.181 21.128C144.328 18.6533 143.41 16.968 142.429 16.072C141.49 15.1333 140.061 14.5787 138.141 14.408V13.128C138.354 13.128 138.653 13.1067 139.037 13.064C139.464 13.0213 139.89 13 140.317 13C142.664 13 144.776 13.5333 146.653 14.6C148.573 15.6667 150.109 17.8427 151.261 21.128L159.837 45.832L170.781 13.64H173.533L158.877 56.52H157.597L148.125 29.576L138.909 56.52H137.629L125.213 21.128Z" fill="black"/>
</svg>
